<?xml version="1.0" standalone="no"?><!DOCTYPE svg PUBLIC "-//W3C//DTD SVG 1.1//EN" "http://www.w3.org/Graphics/SVG/1.1/DTD/svg11.dtd"><svg t="1755608209191" class="icon" viewBox="0 0 1024 1024" version="1.1" xmlns="http://www.w3.org/2000/svg" p-id="9713" xmlns:xlink="http://www.w3.org/1999/xlink" width="32" height="32"><path d="M512 972.8C257.92 972.8 51.2 766.08 51.2 512S257.92 51.2 512 51.2s460.8 206.72 460.8 460.8-206.72 460.8-460.8 460.8zM512 102.4C286.144 102.4 102.4 286.144 102.4 512s183.744 409.6 409.6 409.6 409.6-183.744 409.6-409.6S737.856 102.4 512 102.4z" p-id="9714" fill="#ffffff"></path><path d="M486.4 588.8a25.6 25.6 0 0 1-25.6-25.6v-320a25.6 25.6 0 1 1 51.2 0v320a25.6 25.6 0 0 1-25.6 25.6z" p-id="9715" fill="#ffffff"></path><path d="M685.952 704a25.152 25.152 0 0 1-12.8-3.456L473.6 585.344a25.6 25.6 0 1 1 25.6-44.288l199.552 115.2a25.6 25.6 0 1 1-12.864 47.744z" p-id="9716" fill="#ffffff"></path></svg>